<svg width="212" height="212" viewBox="0 0 212 212" fill="none" xmlns="http://www.w3.org/2000/svg">
<g filter="url(#filter0_d_132_736)">
<circle cx="100" cy="100" r="100" fill="white"/>
</g>
<path d="M68.9645 125.531L65.4289 129.066L72.5 136.137L76.0355 132.602L68.9645 125.531ZM134.069 72.4979C134.069 69.7364 131.83 67.4979 129.069 67.4979L84.0685 67.4979C81.3071 67.4979 79.0685 69.7364 79.0685 72.4979C79.0685 75.2593 81.3071 77.4979 84.0685 77.4979H124.069V117.498C124.069 120.259 126.307 122.498 129.069 122.498C131.83 122.498 134.069 120.259 134.069 117.498L134.069 72.4979ZM76.0355 132.602L132.604 76.0334L125.533 68.9623L68.9645 125.531L76.0355 132.602Z" fill="#FC3B24"/>
<defs>
<filter id="filter0_d_132_736" x="0" y="0" width="212" height="212" filterUnits="userSpaceOnUse" color-interpolation-filters="sRGB">
<feFlood flood-opacity="0" result="BackgroundImageFix"/>
<feColorMatrix in="SourceAlpha" type="matrix" values="0 0 0 0 0 0 0 0 0 0 0 0 0 0 0 0 0 0 127 0" result="hardAlpha"/>
<feOffset dx="12" dy="12"/>
<feComposite in2="hardAlpha" operator="out"/>
<feColorMatrix type="matrix" values="0 0 0 0 0.988235 0 0 0 0 0.231373 0 0 0 0 0.141176 0 0 0 1 0"/>
<feBlend mode="normal" in2="BackgroundImageFix" result="effect1_dropShadow_132_736"/>
<feBlend mode="normal" in="SourceGraphic" in2="effect1_dropShadow_132_736" result="shape"/>
</filter>
</defs>
</svg>
