<svg width="48" height="48" viewBox="0 0 48 48" fill="none" xmlns="http://www.w3.org/2000/svg">
<rect width="48" height="48" rx="8" fill="black"/>
<path fill-rule="evenodd" clip-rule="evenodd" d="M7.93506 23.8081V32.8626C7.93506 34.5051 9.26653 35.8365 10.909 35.8365H28.0326C29.6751 35.8365 31.0066 34.5051 31.0066 32.8626V16.2646C31.0066 13.8009 29.0094 11.8037 26.5457 11.8037H22.0091C19.5454 11.8037 17.5482 13.8009 17.5482 16.2646V29.8404C17.5482 30.4974 17.0156 31.03 16.3586 31.03H13.9312C13.2742 31.03 12.7416 30.4974 12.7416 29.8404V23.8081C12.7416 23.1511 12.209 22.6185 11.5521 22.6185H9.12463C8.46765 22.6185 7.93506 23.1511 7.93506 23.8081ZM21.7539 17.8119V29.8404C21.7539 30.4974 22.2865 31.03 22.9435 31.03H25.3709C26.0279 31.03 26.5605 30.4974 26.5605 29.8404V17.8119C26.5605 16.4846 25.4845 15.4086 24.1572 15.4086C22.8299 15.4086 21.7539 16.4846 21.7539 17.8119Z" fill="white"/>
<path d="M40.4999 26.4758V17.7516C40.4999 14.4667 37.8369 11.8037 34.552 11.8037H34.4796C33.8226 11.8037 33.29 12.3363 33.29 12.9933V15.9236C33.29 16.3029 33.5975 16.6103 33.9767 16.6103C34.9248 16.6103 35.6933 17.3788 35.6933 18.3269V26.4758C35.6933 27.1328 36.2259 27.6654 36.8829 27.6654H39.3103C39.9673 27.6654 40.4999 27.1328 40.4999 26.4758Z" fill="white"/>
<path d="M35.6938 31.5558C35.6938 30.7346 36.3596 30.0688 37.1808 30.0688H39.0134C39.8347 30.0688 40.5004 30.7346 40.5004 31.5558V34.3498C40.5004 35.171 39.8347 35.8367 39.0135 35.8367H37.1808C36.3596 35.8367 35.6938 35.171 35.6938 34.3498V31.5558Z" fill="white"/>
</svg>
