<svg width="213" height="52" viewBox="0 0 213 52" fill="none" xmlns="http://www.w3.org/2000/svg">
<g filter="url(#filter0_d_139_777)">
<rect width="48" height="48" rx="8" fill="white"/>
<rect x="0.5" y="0.5" width="47" height="47" rx="7.5" stroke="black"/>
</g>
<path fill-rule="evenodd" clip-rule="evenodd" d="M7.93506 23.8081V32.8626C7.93506 34.5051 9.26653 35.8365 10.909 35.8365H28.0326C29.6751 35.8365 31.0066 34.5051 31.0066 32.8626V16.2646C31.0066 13.8009 29.0094 11.8037 26.5457 11.8037H22.0091C19.5454 11.8037 17.5482 13.8009 17.5482 16.2646V29.8404C17.5482 30.4974 17.0156 31.03 16.3586 31.03H13.9312C13.2742 31.03 12.7416 30.4974 12.7416 29.8404V23.8081C12.7416 23.1511 12.209 22.6185 11.5521 22.6185H9.12463C8.46765 22.6185 7.93506 23.1511 7.93506 23.8081ZM21.7539 17.8119V29.8404C21.7539 30.4974 22.2865 31.03 22.9435 31.03H25.3709C26.0279 31.03 26.5605 30.4974 26.5605 29.8404V17.8119C26.5605 16.4846 25.4845 15.4086 24.1572 15.4086C22.8299 15.4086 21.7539 16.4846 21.7539 17.8119Z" fill="#FC3B24"/>
<path d="M40.4999 26.4758V17.7516C40.4999 14.4667 37.8369 11.8037 34.552 11.8037H34.4796C33.8226 11.8037 33.29 12.3363 33.29 12.9933V15.9236C33.29 16.3029 33.5975 16.6103 33.9767 16.6103C34.9248 16.6103 35.6933 17.3788 35.6933 18.3269V26.4758C35.6933 27.1328 36.2259 27.6654 36.8829 27.6654H39.3103C39.9673 27.6654 40.4999 27.1328 40.4999 26.4758Z" fill="#FC3B24"/>
<path d="M35.6938 31.5558C35.6938 30.7346 36.3596 30.0688 37.1808 30.0688H39.0134C39.8347 30.0688 40.5004 30.7346 40.5004 31.5558V34.3498C40.5004 35.171 39.8347 35.8367 39.0135 35.8367H37.1808C36.3596 35.8367 35.6938 35.171 35.6938 34.3498V31.5558Z" fill="#FC3B24"/>
<path d="M202.04 29.7204V19.1004H205.1L205.22 21.2604L204.56 21.5004C204.706 21.0204 204.966 20.587 205.34 20.2004C205.726 19.8004 206.186 19.4804 206.72 19.2404C207.253 19.0004 207.813 18.8804 208.4 18.8804C209.2 18.8804 209.873 19.047 210.42 19.3804C210.966 19.7004 211.373 20.187 211.64 20.8404C211.92 21.4804 212.06 22.2737 212.06 23.2204V29.7204H208.84V23.4604C208.84 23.0337 208.78 22.6804 208.66 22.4004C208.54 22.1204 208.36 21.9137 208.12 21.7804C207.88 21.647 207.58 21.587 207.22 21.6004C206.94 21.6004 206.68 21.647 206.44 21.7404C206.2 21.8204 205.986 21.947 205.8 22.1204C205.626 22.2804 205.493 22.467 205.4 22.6804C205.306 22.8937 205.26 23.1337 205.26 23.4004V29.7204H203.64C203.293 29.7204 202.98 29.7204 202.7 29.7204C202.433 29.7204 202.213 29.7204 202.04 29.7204Z" fill="black"/>
<path d="M193.501 34.3204C192.648 34.3204 191.788 34.1937 190.921 33.9404C190.068 33.7004 189.374 33.3804 188.841 32.9804L189.961 30.7004C190.388 30.9937 190.868 31.2204 191.401 31.3804C191.948 31.5537 192.514 31.6404 193.101 31.6404C193.781 31.6404 194.334 31.5404 194.761 31.3404C195.188 31.1404 195.501 30.8404 195.701 30.4404C195.914 30.0404 196.021 29.5404 196.021 28.9404V27.1804L196.621 27.3004C196.541 27.7137 196.314 28.1004 195.941 28.4604C195.581 28.8204 195.134 29.107 194.601 29.3204C194.068 29.5337 193.508 29.6404 192.921 29.6404C191.961 29.6404 191.101 29.4204 190.341 28.9804C189.581 28.527 188.981 27.907 188.541 27.1204C188.114 26.3204 187.901 25.4004 187.901 24.3604C187.901 23.2937 188.114 22.347 188.541 21.5204C188.981 20.6937 189.574 20.047 190.321 19.5804C191.068 19.1137 191.908 18.8804 192.841 18.8804C193.228 18.8804 193.601 18.927 193.961 19.0204C194.334 19.1004 194.674 19.2204 194.981 19.3804C195.301 19.5404 195.581 19.7204 195.821 19.9204C196.074 20.1204 196.281 20.3404 196.441 20.5804C196.601 20.8204 196.701 21.0604 196.741 21.3004L196.081 21.5004L196.201 19.1004H199.261V28.8404C199.261 29.707 199.128 30.4804 198.861 31.1604C198.608 31.8404 198.228 32.4137 197.721 32.8804C197.228 33.347 196.628 33.7004 195.921 33.9404C195.214 34.1937 194.408 34.3204 193.501 34.3204ZM193.581 27.1404C194.101 27.1404 194.548 27.027 194.921 26.8004C195.308 26.5737 195.601 26.2537 195.801 25.8404C196.014 25.427 196.121 24.947 196.121 24.4004C196.121 23.827 196.014 23.3337 195.801 22.9204C195.601 22.507 195.308 22.187 194.921 21.9604C194.548 21.7204 194.101 21.6004 193.581 21.6004C193.088 21.6004 192.654 21.7204 192.281 21.9604C191.908 22.187 191.614 22.507 191.401 22.9204C191.201 23.3337 191.101 23.8204 191.101 24.3804C191.101 24.9404 191.201 25.427 191.401 25.8404C191.614 26.2537 191.908 26.5737 192.281 26.8004C192.654 27.027 193.088 27.1404 193.581 27.1404Z" fill="black"/>
<path d="M182.395 29.7202V19.1002H185.615V29.7202H182.395ZM184.015 17.0002C183.402 17.0002 182.922 16.8602 182.575 16.5802C182.242 16.2868 182.075 15.8735 182.075 15.3402C182.075 14.8468 182.249 14.4468 182.595 14.1402C182.942 13.8335 183.415 13.6802 184.015 13.6802C184.602 13.6802 185.062 13.8268 185.395 14.1202C185.742 14.4002 185.915 14.8068 185.915 15.3402C185.915 15.8335 185.742 16.2335 185.395 16.5402C185.062 16.8468 184.602 17.0002 184.015 17.0002Z" fill="black"/>
<path d="M175.893 29.9204C174.88 29.9204 173.973 29.7604 173.173 29.4404C172.373 29.107 171.733 28.6537 171.253 28.0804L173.213 26.4004C173.626 26.8137 174.093 27.1204 174.613 27.3204C175.133 27.507 175.626 27.6004 176.093 27.6004C176.266 27.6004 176.42 27.5804 176.553 27.5404C176.686 27.5004 176.8 27.447 176.893 27.3804C177 27.3004 177.08 27.2137 177.133 27.1204C177.186 27.0137 177.213 26.8937 177.213 26.7604C177.213 26.4937 177.1 26.2937 176.873 26.1604C176.766 26.0937 176.573 26.0137 176.293 25.9204C176.013 25.8137 175.653 25.707 175.213 25.6004C174.586 25.4404 174.04 25.247 173.573 25.0204C173.12 24.7937 172.746 24.5337 172.453 24.2404C172.186 23.9737 171.98 23.667 171.833 23.3204C171.7 22.9737 171.633 22.587 171.633 22.1604C171.633 21.507 171.826 20.9337 172.213 20.4404C172.613 19.947 173.133 19.567 173.773 19.3004C174.413 19.0204 175.106 18.8804 175.853 18.8804C176.44 18.8804 176.993 18.947 177.513 19.0804C178.046 19.2137 178.54 19.4004 178.993 19.6404C179.46 19.8804 179.873 20.167 180.233 20.5004L178.533 22.4004C178.306 22.1737 178.04 21.9737 177.733 21.8004C177.426 21.6137 177.12 21.467 176.813 21.3604C176.506 21.2404 176.22 21.1804 175.953 21.1804C175.753 21.1804 175.573 21.2004 175.413 21.2404C175.266 21.267 175.14 21.3204 175.033 21.4004C174.94 21.467 174.866 21.5537 174.813 21.6604C174.76 21.7537 174.733 21.8604 174.733 21.9804C174.733 22.127 174.766 22.2604 174.833 22.3804C174.913 22.487 175.02 22.587 175.153 22.6804C175.273 22.747 175.48 22.8337 175.773 22.9404C176.08 23.047 176.48 23.167 176.973 23.3004C177.6 23.4737 178.133 23.6737 178.573 23.9004C179.026 24.1137 179.386 24.367 179.653 24.6604C179.88 24.887 180.04 25.1537 180.133 25.4604C180.24 25.7537 180.293 26.0737 180.293 26.4204C180.293 27.1004 180.1 27.707 179.713 28.2404C179.34 28.7604 178.82 29.1737 178.153 29.4804C177.5 29.7737 176.746 29.9204 175.893 29.9204Z" fill="black"/>
<path d="M165.634 29.9204C164.461 29.9204 163.434 29.687 162.554 29.2204C161.688 28.7537 161.014 28.1137 160.534 27.3004C160.068 26.4737 159.834 25.5337 159.834 24.4804C159.834 23.6537 159.968 22.9004 160.234 22.2204C160.501 21.527 160.874 20.9337 161.354 20.4404C161.848 19.947 162.421 19.567 163.074 19.3004C163.741 19.0204 164.468 18.8804 165.254 18.8804C166.001 18.8804 166.681 19.0137 167.294 19.2804C167.908 19.547 168.441 19.9204 168.894 20.4004C169.348 20.8804 169.694 21.447 169.934 22.1004C170.174 22.7537 170.288 23.467 170.274 24.2404L170.254 25.1204H161.814L161.334 23.3004H167.634L167.294 23.6604V23.2604C167.268 22.927 167.161 22.6404 166.974 22.4004C166.801 22.147 166.568 21.947 166.274 21.8004C165.994 21.6537 165.674 21.5804 165.314 21.5804C164.781 21.5804 164.328 21.687 163.954 21.9004C163.594 22.1004 163.321 22.3937 163.134 22.7804C162.948 23.167 162.854 23.647 162.854 24.2204C162.854 24.7937 162.974 25.3004 163.214 25.7404C163.468 26.1804 163.828 26.5204 164.294 26.7604C164.774 27.0004 165.341 27.1204 165.994 27.1204C166.434 27.1204 166.834 27.0537 167.194 26.9204C167.554 26.787 167.941 26.5604 168.354 26.2404L169.854 28.3604C169.441 28.707 169.001 29.0004 168.534 29.2404C168.068 29.467 167.588 29.6337 167.094 29.7404C166.614 29.8604 166.128 29.9204 165.634 29.9204Z" fill="black"/>
<path d="M145.445 29.7202V15.7202H151.345C152.372 15.7202 153.312 15.8935 154.165 16.2402C155.019 16.5735 155.752 17.0535 156.365 17.6802C156.979 18.2935 157.452 19.0335 157.785 19.9002C158.119 20.7535 158.285 21.6935 158.285 22.7202C158.285 23.7602 158.119 24.7069 157.785 25.5602C157.452 26.4135 156.979 27.1535 156.365 27.7802C155.752 28.3935 155.019 28.8735 154.165 29.2202C153.325 29.5535 152.385 29.7202 151.345 29.7202H145.445ZM148.865 27.3602L148.425 26.7002H151.245C151.792 26.7002 152.285 26.6069 152.725 26.4202C153.165 26.2335 153.539 25.9669 153.845 25.6202C154.165 25.2602 154.405 24.8402 154.565 24.3602C154.739 23.8669 154.825 23.3202 154.825 22.7202C154.825 22.1202 154.739 21.5802 154.565 21.1002C154.405 20.6069 154.165 20.1869 153.845 19.8402C153.539 19.4802 153.165 19.2069 152.725 19.0202C152.285 18.8335 151.792 18.7402 151.245 18.7402H148.365L148.865 18.1202V27.3602Z" fill="black"/>
<path d="M141.148 29.9403C140.602 29.9403 140.175 29.787 139.868 29.4803C139.575 29.1603 139.428 28.7136 139.428 28.1403C139.428 27.607 139.582 27.1736 139.888 26.8403C140.208 26.4936 140.628 26.3203 141.148 26.3203C141.695 26.3203 142.122 26.4803 142.428 26.8003C142.735 27.107 142.888 27.5536 142.888 28.1403C142.888 28.6736 142.722 29.107 142.388 29.4403C142.068 29.7736 141.655 29.9403 141.148 29.9403Z" fill="black"/>
<path d="M133.686 29.9204C132.673 29.9204 131.766 29.7604 130.966 29.4404C130.166 29.107 129.526 28.6537 129.046 28.0804L131.006 26.4004C131.419 26.8137 131.886 27.1204 132.406 27.3204C132.926 27.507 133.419 27.6004 133.886 27.6004C134.059 27.6004 134.213 27.5804 134.346 27.5404C134.479 27.5004 134.593 27.447 134.686 27.3804C134.793 27.3004 134.873 27.2137 134.926 27.1204C134.979 27.0137 135.006 26.8937 135.006 26.7604C135.006 26.4937 134.893 26.2937 134.666 26.1604C134.559 26.0937 134.366 26.0137 134.086 25.9204C133.806 25.8137 133.446 25.707 133.006 25.6004C132.379 25.4404 131.833 25.247 131.366 25.0204C130.913 24.7937 130.539 24.5337 130.246 24.2404C129.979 23.9737 129.773 23.667 129.626 23.3204C129.493 22.9737 129.426 22.587 129.426 22.1604C129.426 21.507 129.619 20.9337 130.006 20.4404C130.406 19.947 130.926 19.567 131.566 19.3004C132.206 19.0204 132.899 18.8804 133.646 18.8804C134.233 18.8804 134.786 18.947 135.306 19.0804C135.839 19.2137 136.333 19.4004 136.786 19.6404C137.253 19.8804 137.666 20.167 138.026 20.5004L136.326 22.4004C136.099 22.1737 135.833 21.9737 135.526 21.8004C135.219 21.6137 134.913 21.467 134.606 21.3604C134.299 21.2404 134.013 21.1804 133.746 21.1804C133.546 21.1804 133.366 21.2004 133.206 21.2404C133.059 21.267 132.933 21.3204 132.826 21.4004C132.733 21.467 132.659 21.5537 132.606 21.6604C132.553 21.7537 132.526 21.8604 132.526 21.9804C132.526 22.127 132.559 22.2604 132.626 22.3804C132.706 22.487 132.813 22.587 132.946 22.6804C133.066 22.747 133.273 22.8337 133.566 22.9404C133.873 23.047 134.273 23.167 134.766 23.3004C135.393 23.4737 135.926 23.6737 136.366 23.9004C136.819 24.1137 137.179 24.367 137.446 24.6604C137.673 24.887 137.833 25.1537 137.926 25.4604C138.033 25.7537 138.086 26.0737 138.086 26.4204C138.086 27.1004 137.893 27.707 137.506 28.2404C137.133 28.7604 136.613 29.1737 135.946 29.4804C135.293 29.7737 134.539 29.9204 133.686 29.9204Z" fill="black"/>
<path d="M123.427 29.9204C122.254 29.9204 121.227 29.687 120.347 29.2204C119.481 28.7537 118.807 28.1137 118.327 27.3004C117.861 26.4737 117.627 25.5337 117.627 24.4804C117.627 23.6537 117.761 22.9004 118.027 22.2204C118.294 21.527 118.667 20.9337 119.147 20.4404C119.641 19.947 120.214 19.567 120.867 19.3004C121.534 19.0204 122.261 18.8804 123.047 18.8804C123.794 18.8804 124.474 19.0137 125.087 19.2804C125.701 19.547 126.234 19.9204 126.687 20.4004C127.141 20.8804 127.487 21.447 127.727 22.1004C127.967 22.7537 128.081 23.467 128.067 24.2404L128.047 25.1204H119.607L119.127 23.3004H125.427L125.087 23.6604V23.2604C125.061 22.927 124.954 22.6404 124.767 22.4004C124.594 22.147 124.361 21.947 124.067 21.8004C123.787 21.6537 123.467 21.5804 123.107 21.5804C122.574 21.5804 122.121 21.687 121.747 21.9004C121.387 22.1004 121.114 22.3937 120.927 22.7804C120.741 23.167 120.647 23.647 120.647 24.2204C120.647 24.7937 120.767 25.3004 121.007 25.7404C121.261 26.1804 121.621 26.5204 122.087 26.7604C122.567 27.0004 123.134 27.1204 123.787 27.1204C124.227 27.1204 124.627 27.0537 124.987 26.9204C125.347 26.787 125.734 26.5604 126.147 26.2404L127.647 28.3604C127.234 28.707 126.794 29.0004 126.327 29.2404C125.861 29.467 125.381 29.6337 124.887 29.7404C124.407 29.8604 123.921 29.9204 123.427 29.9204Z" fill="black"/>
<path d="M105.653 29.7204V14.9204H108.833V21.2604L108.173 21.5004C108.319 21.0204 108.58 20.5871 108.953 20.2004C109.34 19.8004 109.799 19.4804 110.333 19.2404C110.866 19.0004 111.426 18.8804 112.013 18.8804C112.813 18.8804 113.486 19.0471 114.033 19.3804C114.579 19.7004 114.986 20.1871 115.253 20.8404C115.533 21.4804 115.673 22.2737 115.673 23.2204V29.7204H112.453V23.4604C112.453 23.0337 112.393 22.6804 112.273 22.4004C112.153 22.1204 111.973 21.9137 111.733 21.7804C111.493 21.6471 111.193 21.5871 110.833 21.6004C110.553 21.6004 110.293 21.6471 110.053 21.7404C109.813 21.8204 109.6 21.9471 109.413 22.1204C109.24 22.2804 109.106 22.4671 109.013 22.6804C108.919 22.8937 108.873 23.1337 108.873 23.4004V29.7204H107.253C106.906 29.7204 106.593 29.7204 106.313 29.7204C106.046 29.7204 105.826 29.7204 105.653 29.7204Z" fill="black"/>
<path d="M96.6067 29.9204C95.7 29.9204 94.88 29.6871 94.1467 29.2204C93.4267 28.7537 92.86 28.1071 92.4467 27.2804C92.0333 26.4404 91.8267 25.4871 91.8267 24.4204C91.8267 23.3537 92.0333 22.4071 92.4467 21.5804C92.86 20.7404 93.4267 20.0804 94.1467 19.6004C94.88 19.1204 95.7067 18.8804 96.6267 18.8804C97.1067 18.8804 97.5667 18.9537 98.0067 19.1004C98.46 19.2471 98.86 19.4471 99.2067 19.7004C99.5667 19.9537 99.86 20.2404 100.087 20.5604C100.313 20.8804 100.453 21.2204 100.507 21.5804L99.7267 21.7604V14.9204H102.947V29.7204H99.9467L99.7667 27.3204L100.407 27.4404C100.38 27.7604 100.26 28.0737 100.047 28.3804C99.8333 28.6737 99.5467 28.9404 99.1867 29.1804C98.84 29.4071 98.4467 29.5871 98.0067 29.7204C97.5667 29.8537 97.1 29.9204 96.6067 29.9204ZM97.4067 27.2604C97.9 27.2604 98.32 27.1471 98.6667 26.9204C99.0267 26.6804 99.3067 26.3471 99.5067 25.9204C99.7067 25.4937 99.8067 24.9937 99.8067 24.4204C99.8067 23.8337 99.7067 23.3271 99.5067 22.9004C99.3067 22.4737 99.0267 22.1471 98.6667 21.9204C98.32 21.6804 97.9 21.5604 97.4067 21.5604C96.9267 21.5604 96.5067 21.6804 96.1467 21.9204C95.8 22.1471 95.5267 22.4737 95.3267 22.9004C95.1267 23.3271 95.0267 23.8337 95.0267 24.4204C95.0267 24.9937 95.1267 25.4937 95.3267 25.9204C95.5267 26.3471 95.8 26.6804 96.1467 26.9204C96.5067 27.1471 96.9267 27.2604 97.4067 27.2604Z" fill="black"/>
<path d="M86.8986 29.7204V23.2004C86.8986 22.6537 86.7453 22.2537 86.4386 22.0004C86.1453 21.7337 85.7319 21.6004 85.1986 21.6004C84.6786 21.6004 84.2119 21.7004 83.7986 21.9004C83.3986 22.087 83.0119 22.4004 82.6386 22.8404L80.7186 20.9804C81.3586 20.327 82.0919 19.8137 82.9186 19.4404C83.7453 19.067 84.6453 18.8804 85.6186 18.8804C86.5119 18.8804 87.2853 19.0137 87.9386 19.2804C88.5919 19.547 89.0986 19.9537 89.4586 20.5004C89.8186 21.047 89.9986 21.7404 89.9986 22.5804V29.7204H86.8986ZM84.1386 29.9204C83.4719 29.9204 82.8653 29.787 82.3186 29.5204C81.7853 29.2537 81.3586 28.887 81.0386 28.4204C80.7319 27.9404 80.5786 27.3804 80.5786 26.7404C80.5786 26.1937 80.6786 25.7137 80.8786 25.3004C81.0786 24.887 81.3719 24.547 81.7586 24.2804C82.1586 24.0004 82.6519 23.7937 83.2386 23.6604C83.8386 23.5137 84.5319 23.4404 85.3186 23.4404H88.5386L88.3586 25.4604H85.3986C85.1186 25.4604 84.8719 25.487 84.6586 25.5404C84.4453 25.5804 84.2653 25.6537 84.1186 25.7604C83.9719 25.8537 83.8586 25.967 83.7786 26.1004C83.7119 26.2337 83.6786 26.3937 83.6786 26.5804C83.6786 26.7804 83.7319 26.9537 83.8386 27.1004C83.9453 27.247 84.0853 27.3604 84.2586 27.4404C84.4453 27.5204 84.6586 27.5604 84.8986 27.5604C85.2453 27.5604 85.5719 27.507 85.8786 27.4004C86.1986 27.2804 86.4786 27.1137 86.7186 26.9004C86.9719 26.687 87.1719 26.4404 87.3186 26.1604L87.8786 27.6004C87.5986 28.0537 87.2586 28.4537 86.8586 28.8004C86.4719 29.147 86.0453 29.4204 85.5786 29.6204C85.1253 29.8204 84.6453 29.9204 84.1386 29.9204Z" fill="black"/>
<path d="M64 29.7202V15.7202H67.06L72.14 23.9802L69.98 23.9602L75.12 15.7202H78.08V29.7202H74.76V25.4802C74.76 24.2535 74.7867 23.1535 74.84 22.1802C74.9067 21.1935 75.0133 20.2269 75.16 19.2802L75.54 20.3202L71.68 26.3002H70.32L66.54 20.3602L66.92 19.2802C67.08 20.1735 67.1867 21.1002 67.24 22.0602C67.3067 23.0069 67.34 24.1469 67.34 25.4802V29.7202H64Z" fill="black"/>
<defs>
<filter id="filter0_d_139_777" x="0" y="0" width="52" height="52" filterUnits="userSpaceOnUse" color-interpolation-filters="sRGB">
<feFlood flood-opacity="0" result="BackgroundImageFix"/>
<feColorMatrix in="SourceAlpha" type="matrix" values="0 0 0 0 0 0 0 0 0 0 0 0 0 0 0 0 0 0 127 0" result="hardAlpha"/>
<feOffset dx="4" dy="4"/>
<feComposite in2="hardAlpha" operator="out"/>
<feColorMatrix type="matrix" values="0 0 0 0 0 0 0 0 0 0 0 0 0 0 0 0 0 0 1 0"/>
<feBlend mode="normal" in2="BackgroundImageFix" result="effect1_dropShadow_139_777"/>
<feBlend mode="normal" in="SourceGraphic" in2="effect1_dropShadow_139_777" result="shape"/>
</filter>
</defs>
</svg>
