<svg width="34" height="25" viewBox="0 0 34 25" fill="none" xmlns="http://www.w3.org/2000/svg">
<path fill-rule="evenodd" clip-rule="evenodd" d="M0.935059 12.8081V21.8626C0.935059 23.5051 2.26653 24.8365 3.90898 24.8365H21.0326C22.6751 24.8365 24.0066 23.5051 24.0066 21.8626V5.2646C24.0066 2.80092 22.0094 0.803711 19.5457 0.803711H15.0091C12.5454 0.803711 10.5482 2.80092 10.5482 5.2646V18.8404C10.5482 19.4974 10.0156 20.03 9.35862 20.03H6.9312C6.27421 20.03 5.74162 19.4974 5.74162 18.8404V12.8081C5.74162 12.1511 5.20904 11.6185 4.55205 11.6185H2.12463C1.46765 11.6185 0.935059 12.1511 0.935059 12.8081ZM14.7539 6.81191V18.8404C14.7539 19.4974 15.2865 20.03 15.9435 20.03H18.3709C19.0279 20.03 19.5605 19.4974 19.5605 18.8404V6.81191C19.5605 5.48461 18.4845 4.40863 17.1572 4.40863C15.8299 4.40863 14.7539 5.48462 14.7539 6.81191Z" fill="white"/>
<path d="M33.4999 15.4758V6.75156C33.4999 3.46665 30.8369 0.803711 27.552 0.803711H27.4796C26.8226 0.803711 26.29 1.3363 26.29 1.99328V4.92362C26.29 5.30285 26.5975 5.61028 26.9767 5.61028C27.9248 5.61028 28.6933 6.37884 28.6933 7.3269V15.4758C28.6933 16.1328 29.2259 16.6654 29.8829 16.6654H32.3103C32.9673 16.6654 33.4999 16.1328 33.4999 15.4758Z" fill="white"/>
<path d="M28.6938 20.5558C28.6938 19.7346 29.3596 19.0688 30.1808 19.0688H32.0134C32.8347 19.0688 33.5004 19.7346 33.5004 20.5558V23.3498C33.5004 24.171 32.8347 24.8367 32.0135 24.8367H30.1808C29.3596 24.8367 28.6938 24.171 28.6938 23.3498V20.5558Z" fill="white"/>
</svg>
