<svg width="205" height="48" viewBox="0 0 205 48" fill="none" xmlns="http://www.w3.org/2000/svg">
<rect width="48" height="48" rx="8" fill="#FC3B24"/>
<path fill-rule="evenodd" clip-rule="evenodd" d="M7.93506 23.8081V32.8626C7.93506 34.5051 9.26653 35.8365 10.909 35.8365H28.0326C29.6751 35.8365 31.0066 34.5051 31.0066 32.8626V16.2646C31.0066 13.8009 29.0094 11.8037 26.5457 11.8037H22.0091C19.5454 11.8037 17.5482 13.8009 17.5482 16.2646V29.8404C17.5482 30.4974 17.0156 31.03 16.3586 31.03H13.9312C13.2742 31.03 12.7416 30.4974 12.7416 29.8404V23.8081C12.7416 23.1511 12.209 22.6185 11.5521 22.6185H9.12463C8.46765 22.6185 7.93506 23.1511 7.93506 23.8081ZM21.7539 17.8119V29.8404C21.7539 30.4974 22.2865 31.03 22.9435 31.03H25.3709C26.0279 31.03 26.5605 30.4974 26.5605 29.8404V17.8119C26.5605 16.4846 25.4845 15.4086 24.1572 15.4086C22.8299 15.4086 21.7539 16.4846 21.7539 17.8119Z" fill="white"/>
<path d="M40.4999 26.4758V17.7516C40.4999 14.4667 37.8369 11.8037 34.552 11.8037H34.4796C33.8226 11.8037 33.29 12.3363 33.29 12.9933V15.9236C33.29 16.3029 33.5975 16.6103 33.9767 16.6103C34.9248 16.6103 35.6933 17.3788 35.6933 18.3269V26.4758C35.6933 27.1328 36.2259 27.6654 36.8829 27.6654H39.3103C39.9673 27.6654 40.4999 27.1328 40.4999 26.4758Z" fill="white"/>
<path d="M35.6938 31.5558C35.6938 30.7346 36.3596 30.0688 37.1808 30.0688H39.0134C39.8347 30.0688 40.5004 30.7346 40.5004 31.5558V34.3498C40.5004 35.171 39.8347 35.8367 39.0135 35.8367H37.1808C36.3596 35.8367 35.6938 35.171 35.6938 34.3498V31.5558Z" fill="white"/>
<path d="M194.04 29.7204V19.1004H197.1L197.22 21.2604L196.56 21.5004C196.706 21.0204 196.966 20.587 197.34 20.2004C197.726 19.8004 198.186 19.4804 198.72 19.2404C199.253 19.0004 199.813 18.8804 200.4 18.8804C201.2 18.8804 201.873 19.047 202.42 19.3804C202.966 19.7004 203.373 20.187 203.64 20.8404C203.92 21.4804 204.06 22.2737 204.06 23.2204V29.7204H200.84V23.4604C200.84 23.0337 200.78 22.6804 200.66 22.4004C200.54 22.1204 200.36 21.9137 200.12 21.7804C199.88 21.647 199.58 21.587 199.22 21.6004C198.94 21.6004 198.68 21.647 198.44 21.7404C198.2 21.8204 197.986 21.947 197.8 22.1204C197.626 22.2804 197.493 22.467 197.4 22.6804C197.306 22.8937 197.26 23.1337 197.26 23.4004V29.7204H195.64C195.293 29.7204 194.98 29.7204 194.7 29.7204C194.433 29.7204 194.213 29.7204 194.04 29.7204Z" fill="black"/>
<path d="M185.501 34.3204C184.648 34.3204 183.788 34.1937 182.921 33.9404C182.068 33.7004 181.374 33.3804 180.841 32.9804L181.961 30.7004C182.388 30.9937 182.868 31.2204 183.401 31.3804C183.948 31.5537 184.514 31.6404 185.101 31.6404C185.781 31.6404 186.334 31.5404 186.761 31.3404C187.188 31.1404 187.501 30.8404 187.701 30.4404C187.914 30.0404 188.021 29.5404 188.021 28.9404V27.1804L188.621 27.3004C188.541 27.7137 188.314 28.1004 187.941 28.4604C187.581 28.8204 187.134 29.107 186.601 29.3204C186.068 29.5337 185.508 29.6404 184.921 29.6404C183.961 29.6404 183.101 29.4204 182.341 28.9804C181.581 28.527 180.981 27.907 180.541 27.1204C180.114 26.3204 179.901 25.4004 179.901 24.3604C179.901 23.2937 180.114 22.347 180.541 21.5204C180.981 20.6937 181.574 20.047 182.321 19.5804C183.068 19.1137 183.908 18.8804 184.841 18.8804C185.228 18.8804 185.601 18.927 185.961 19.0204C186.334 19.1004 186.674 19.2204 186.981 19.3804C187.301 19.5404 187.581 19.7204 187.821 19.9204C188.074 20.1204 188.281 20.3404 188.441 20.5804C188.601 20.8204 188.701 21.0604 188.741 21.3004L188.081 21.5004L188.201 19.1004H191.261V28.8404C191.261 29.707 191.128 30.4804 190.861 31.1604C190.608 31.8404 190.228 32.4137 189.721 32.8804C189.228 33.347 188.628 33.7004 187.921 33.9404C187.214 34.1937 186.408 34.3204 185.501 34.3204ZM185.581 27.1404C186.101 27.1404 186.548 27.027 186.921 26.8004C187.308 26.5737 187.601 26.2537 187.801 25.8404C188.014 25.427 188.121 24.947 188.121 24.4004C188.121 23.827 188.014 23.3337 187.801 22.9204C187.601 22.507 187.308 22.187 186.921 21.9604C186.548 21.7204 186.101 21.6004 185.581 21.6004C185.088 21.6004 184.654 21.7204 184.281 21.9604C183.908 22.187 183.614 22.507 183.401 22.9204C183.201 23.3337 183.101 23.8204 183.101 24.3804C183.101 24.9404 183.201 25.427 183.401 25.8404C183.614 26.2537 183.908 26.5737 184.281 26.8004C184.654 27.027 185.088 27.1404 185.581 27.1404Z" fill="black"/>
<path d="M174.395 29.7202V19.1002H177.615V29.7202H174.395ZM176.015 17.0002C175.402 17.0002 174.922 16.8602 174.575 16.5802C174.242 16.2868 174.075 15.8735 174.075 15.3402C174.075 14.8468 174.249 14.4468 174.595 14.1402C174.942 13.8335 175.415 13.6802 176.015 13.6802C176.602 13.6802 177.062 13.8268 177.395 14.1202C177.742 14.4002 177.915 14.8068 177.915 15.3402C177.915 15.8335 177.742 16.2335 177.395 16.5402C177.062 16.8468 176.602 17.0002 176.015 17.0002Z" fill="black"/>
<path d="M167.893 29.9204C166.88 29.9204 165.973 29.7604 165.173 29.4404C164.373 29.107 163.733 28.6537 163.253 28.0804L165.213 26.4004C165.626 26.8137 166.093 27.1204 166.613 27.3204C167.133 27.507 167.626 27.6004 168.093 27.6004C168.266 27.6004 168.42 27.5804 168.553 27.5404C168.686 27.5004 168.8 27.447 168.893 27.3804C169 27.3004 169.08 27.2137 169.133 27.1204C169.186 27.0137 169.213 26.8937 169.213 26.7604C169.213 26.4937 169.1 26.2937 168.873 26.1604C168.766 26.0937 168.573 26.0137 168.293 25.9204C168.013 25.8137 167.653 25.707 167.213 25.6004C166.586 25.4404 166.04 25.247 165.573 25.0204C165.12 24.7937 164.746 24.5337 164.453 24.2404C164.186 23.9737 163.98 23.667 163.833 23.3204C163.7 22.9737 163.633 22.587 163.633 22.1604C163.633 21.507 163.826 20.9337 164.213 20.4404C164.613 19.947 165.133 19.567 165.773 19.3004C166.413 19.0204 167.106 18.8804 167.853 18.8804C168.44 18.8804 168.993 18.947 169.513 19.0804C170.046 19.2137 170.54 19.4004 170.993 19.6404C171.46 19.8804 171.873 20.167 172.233 20.5004L170.533 22.4004C170.306 22.1737 170.04 21.9737 169.733 21.8004C169.426 21.6137 169.12 21.467 168.813 21.3604C168.506 21.2404 168.22 21.1804 167.953 21.1804C167.753 21.1804 167.573 21.2004 167.413 21.2404C167.266 21.267 167.14 21.3204 167.033 21.4004C166.94 21.467 166.866 21.5537 166.813 21.6604C166.76 21.7537 166.733 21.8604 166.733 21.9804C166.733 22.127 166.766 22.2604 166.833 22.3804C166.913 22.487 167.02 22.587 167.153 22.6804C167.273 22.747 167.48 22.8337 167.773 22.9404C168.08 23.047 168.48 23.167 168.973 23.3004C169.6 23.4737 170.133 23.6737 170.573 23.9004C171.026 24.1137 171.386 24.367 171.653 24.6604C171.88 24.887 172.04 25.1537 172.133 25.4604C172.24 25.7537 172.293 26.0737 172.293 26.4204C172.293 27.1004 172.1 27.707 171.713 28.2404C171.34 28.7604 170.82 29.1737 170.153 29.4804C169.5 29.7737 168.746 29.9204 167.893 29.9204Z" fill="black"/>
<path d="M157.634 29.9204C156.461 29.9204 155.434 29.687 154.554 29.2204C153.688 28.7537 153.014 28.1137 152.534 27.3004C152.068 26.4737 151.834 25.5337 151.834 24.4804C151.834 23.6537 151.968 22.9004 152.234 22.2204C152.501 21.527 152.874 20.9337 153.354 20.4404C153.848 19.947 154.421 19.567 155.074 19.3004C155.741 19.0204 156.468 18.8804 157.254 18.8804C158.001 18.8804 158.681 19.0137 159.294 19.2804C159.908 19.547 160.441 19.9204 160.894 20.4004C161.348 20.8804 161.694 21.447 161.934 22.1004C162.174 22.7537 162.288 23.467 162.274 24.2404L162.254 25.1204H153.814L153.334 23.3004H159.634L159.294 23.6604V23.2604C159.268 22.927 159.161 22.6404 158.974 22.4004C158.801 22.147 158.568 21.947 158.274 21.8004C157.994 21.6537 157.674 21.5804 157.314 21.5804C156.781 21.5804 156.328 21.687 155.954 21.9004C155.594 22.1004 155.321 22.3937 155.134 22.7804C154.948 23.167 154.854 23.647 154.854 24.2204C154.854 24.7937 154.974 25.3004 155.214 25.7404C155.468 26.1804 155.828 26.5204 156.294 26.7604C156.774 27.0004 157.341 27.1204 157.994 27.1204C158.434 27.1204 158.834 27.0537 159.194 26.9204C159.554 26.787 159.941 26.5604 160.354 26.2404L161.854 28.3604C161.441 28.707 161.001 29.0004 160.534 29.2404C160.068 29.467 159.588 29.6337 159.094 29.7404C158.614 29.8604 158.128 29.9204 157.634 29.9204Z" fill="black"/>
<path d="M137.445 29.7202V15.7202H143.345C144.372 15.7202 145.312 15.8935 146.165 16.2402C147.019 16.5735 147.752 17.0535 148.365 17.6802C148.979 18.2935 149.452 19.0335 149.785 19.9002C150.119 20.7535 150.285 21.6935 150.285 22.7202C150.285 23.7602 150.119 24.7069 149.785 25.5602C149.452 26.4135 148.979 27.1535 148.365 27.7802C147.752 28.3935 147.019 28.8735 146.165 29.2202C145.325 29.5535 144.385 29.7202 143.345 29.7202H137.445ZM140.865 27.3602L140.425 26.7002H143.245C143.792 26.7002 144.285 26.6069 144.725 26.4202C145.165 26.2336 145.539 25.9669 145.845 25.6202C146.165 25.2602 146.405 24.8402 146.565 24.3602C146.739 23.8669 146.825 23.3202 146.825 22.7202C146.825 22.1202 146.739 21.5802 146.565 21.1002C146.405 20.6069 146.165 20.1869 145.845 19.8402C145.539 19.4802 145.165 19.2069 144.725 19.0202C144.285 18.8335 143.792 18.7402 143.245 18.7402H140.365L140.865 18.1202V27.3602Z" fill="black"/>
<path d="M133.148 29.9403C132.602 29.9403 132.175 29.787 131.868 29.4803C131.575 29.1603 131.428 28.7136 131.428 28.1403C131.428 27.607 131.582 27.1736 131.888 26.8403C132.208 26.4936 132.628 26.3203 133.148 26.3203C133.695 26.3203 134.122 26.4803 134.428 26.8003C134.735 27.107 134.888 27.5536 134.888 28.1403C134.888 28.6736 134.722 29.107 134.388 29.4403C134.068 29.7736 133.655 29.9403 133.148 29.9403Z" fill="black"/>
<path d="M125.686 29.9204C124.673 29.9204 123.766 29.7604 122.966 29.4404C122.166 29.107 121.526 28.6537 121.046 28.0804L123.006 26.4004C123.419 26.8137 123.886 27.1204 124.406 27.3204C124.926 27.507 125.419 27.6004 125.886 27.6004C126.059 27.6004 126.213 27.5804 126.346 27.5404C126.479 27.5004 126.593 27.447 126.686 27.3804C126.793 27.3004 126.873 27.2137 126.926 27.1204C126.979 27.0137 127.006 26.8937 127.006 26.7604C127.006 26.4937 126.893 26.2937 126.666 26.1604C126.559 26.0937 126.366 26.0137 126.086 25.9204C125.806 25.8137 125.446 25.707 125.006 25.6004C124.379 25.4404 123.833 25.247 123.366 25.0204C122.913 24.7937 122.539 24.5337 122.246 24.2404C121.979 23.9737 121.773 23.667 121.626 23.3204C121.493 22.9737 121.426 22.587 121.426 22.1604C121.426 21.507 121.619 20.9337 122.006 20.4404C122.406 19.947 122.926 19.567 123.566 19.3004C124.206 19.0204 124.899 18.8804 125.646 18.8804C126.233 18.8804 126.786 18.947 127.306 19.0804C127.839 19.2137 128.333 19.4004 128.786 19.6404C129.253 19.8804 129.666 20.167 130.026 20.5004L128.326 22.4004C128.099 22.1737 127.833 21.9737 127.526 21.8004C127.219 21.6137 126.913 21.467 126.606 21.3604C126.299 21.2404 126.013 21.1804 125.746 21.1804C125.546 21.1804 125.366 21.2004 125.206 21.2404C125.059 21.267 124.933 21.3204 124.826 21.4004C124.733 21.467 124.659 21.5537 124.606 21.6604C124.553 21.7537 124.526 21.8604 124.526 21.9804C124.526 22.127 124.559 22.2604 124.626 22.3804C124.706 22.487 124.813 22.587 124.946 22.6804C125.066 22.747 125.273 22.8337 125.566 22.9404C125.873 23.047 126.273 23.167 126.766 23.3004C127.393 23.4737 127.926 23.6737 128.366 23.9004C128.819 24.1137 129.179 24.367 129.446 24.6604C129.673 24.887 129.833 25.1537 129.926 25.4604C130.033 25.7537 130.086 26.0737 130.086 26.4204C130.086 27.1004 129.893 27.707 129.506 28.2404C129.133 28.7604 128.613 29.1737 127.946 29.4804C127.293 29.7737 126.539 29.9204 125.686 29.9204Z" fill="black"/>
<path d="M115.427 29.9204C114.254 29.9204 113.227 29.687 112.347 29.2204C111.481 28.7537 110.807 28.1137 110.327 27.3004C109.861 26.4737 109.627 25.5337 109.627 24.4804C109.627 23.6537 109.761 22.9004 110.027 22.2204C110.294 21.527 110.667 20.9337 111.147 20.4404C111.641 19.947 112.214 19.567 112.867 19.3004C113.534 19.0204 114.261 18.8804 115.047 18.8804C115.794 18.8804 116.474 19.0137 117.087 19.2804C117.701 19.547 118.234 19.9204 118.687 20.4004C119.141 20.8804 119.487 21.447 119.727 22.1004C119.967 22.7537 120.081 23.467 120.067 24.2404L120.047 25.1204H111.607L111.127 23.3004H117.427L117.087 23.6604V23.2604C117.061 22.927 116.954 22.6404 116.767 22.4004C116.594 22.147 116.361 21.947 116.067 21.8004C115.787 21.6537 115.467 21.5804 115.107 21.5804C114.574 21.5804 114.121 21.687 113.747 21.9004C113.387 22.1004 113.114 22.3937 112.927 22.7804C112.741 23.167 112.647 23.647 112.647 24.2204C112.647 24.7937 112.767 25.3004 113.007 25.7404C113.261 26.1804 113.621 26.5204 114.087 26.7604C114.567 27.0004 115.134 27.1204 115.787 27.1204C116.227 27.1204 116.627 27.0537 116.987 26.9204C117.347 26.787 117.734 26.5604 118.147 26.2404L119.647 28.3604C119.234 28.707 118.794 29.0004 118.327 29.2404C117.861 29.467 117.381 29.6337 116.887 29.7404C116.407 29.8604 115.921 29.9204 115.427 29.9204Z" fill="black"/>
<path d="M97.6528 29.7204V14.9204H100.833V21.2604L100.173 21.5004C100.319 21.0204 100.58 20.5871 100.953 20.2004C101.34 19.8004 101.799 19.4804 102.333 19.2404C102.866 19.0004 103.426 18.8804 104.013 18.8804C104.813 18.8804 105.486 19.0471 106.033 19.3804C106.58 19.7004 106.986 20.1871 107.253 20.8404C107.533 21.4804 107.673 22.2737 107.673 23.2204V29.7204H104.453V23.4604C104.453 23.0337 104.393 22.6804 104.273 22.4004C104.153 22.1204 103.973 21.9137 103.733 21.7804C103.493 21.6471 103.193 21.5871 102.833 21.6004C102.553 21.6004 102.293 21.6471 102.053 21.7404C101.813 21.8204 101.6 21.9471 101.413 22.1204C101.24 22.2804 101.106 22.4671 101.013 22.6804C100.919 22.8937 100.873 23.1337 100.873 23.4004V29.7204H99.2528C98.9062 29.7204 98.5928 29.7204 98.3128 29.7204C98.0462 29.7204 97.8262 29.7204 97.6528 29.7204Z" fill="black"/>
<path d="M88.6067 29.9204C87.7 29.9204 86.88 29.6871 86.1467 29.2204C85.4267 28.7537 84.86 28.1071 84.4467 27.2804C84.0333 26.4404 83.8267 25.4871 83.8267 24.4204C83.8267 23.3537 84.0333 22.4071 84.4467 21.5804C84.86 20.7404 85.4267 20.0804 86.1467 19.6004C86.88 19.1204 87.7067 18.8804 88.6267 18.8804C89.1067 18.8804 89.5667 18.9537 90.0067 19.1004C90.46 19.2471 90.86 19.4471 91.2067 19.7004C91.5667 19.9537 91.86 20.2404 92.0867 20.5604C92.3133 20.8804 92.4533 21.2204 92.5067 21.5804L91.7267 21.7604V14.9204H94.9467V29.7204H91.9467L91.7667 27.3204L92.4067 27.4404C92.38 27.7604 92.26 28.0737 92.0467 28.3804C91.8333 28.6737 91.5467 28.9404 91.1867 29.1804C90.84 29.4071 90.4467 29.5871 90.0067 29.7204C89.5667 29.8537 89.1 29.9204 88.6067 29.9204ZM89.4067 27.2604C89.9 27.2604 90.32 27.1471 90.6667 26.9204C91.0267 26.6804 91.3067 26.3471 91.5067 25.9204C91.7067 25.4937 91.8067 24.9937 91.8067 24.4204C91.8067 23.8337 91.7067 23.3271 91.5067 22.9004C91.3067 22.4737 91.0267 22.1471 90.6667 21.9204C90.32 21.6804 89.9 21.5604 89.4067 21.5604C88.9267 21.5604 88.5067 21.6804 88.1467 21.9204C87.8 22.1471 87.5267 22.4737 87.3267 22.9004C87.1267 23.3271 87.0267 23.8337 87.0267 24.4204C87.0267 24.9937 87.1267 25.4937 87.3267 25.9204C87.5267 26.3471 87.8 26.6804 88.1467 26.9204C88.5067 27.1471 88.9267 27.2604 89.4067 27.2604Z" fill="black"/>
<path d="M78.8986 29.7204V23.2004C78.8986 22.6537 78.7453 22.2537 78.4386 22.0004C78.1453 21.7337 77.7319 21.6004 77.1986 21.6004C76.6786 21.6004 76.2119 21.7004 75.7986 21.9004C75.3986 22.087 75.0119 22.4004 74.6386 22.8404L72.7186 20.9804C73.3586 20.327 74.0919 19.8137 74.9186 19.4404C75.7453 19.067 76.6453 18.8804 77.6186 18.8804C78.5119 18.8804 79.2853 19.0137 79.9386 19.2804C80.5919 19.547 81.0986 19.9537 81.4586 20.5004C81.8186 21.047 81.9986 21.7404 81.9986 22.5804V29.7204H78.8986ZM76.1386 29.9204C75.4719 29.9204 74.8653 29.787 74.3186 29.5204C73.7853 29.2537 73.3586 28.887 73.0386 28.4204C72.7319 27.9404 72.5786 27.3804 72.5786 26.7404C72.5786 26.1937 72.6786 25.7137 72.8786 25.3004C73.0786 24.887 73.3719 24.547 73.7586 24.2804C74.1586 24.0004 74.6519 23.7937 75.2386 23.6604C75.8386 23.5137 76.5319 23.4404 77.3186 23.4404H80.5386L80.3586 25.4604H77.3986C77.1186 25.4604 76.8719 25.487 76.6586 25.5404C76.4453 25.5804 76.2653 25.6537 76.1186 25.7604C75.9719 25.8537 75.8586 25.967 75.7786 26.1004C75.7119 26.2337 75.6786 26.3937 75.6786 26.5804C75.6786 26.7804 75.7319 26.9537 75.8386 27.1004C75.9453 27.247 76.0853 27.3604 76.2586 27.4404C76.4453 27.5204 76.6586 27.5604 76.8986 27.5604C77.2453 27.5604 77.5719 27.507 77.8786 27.4004C78.1986 27.2804 78.4786 27.1137 78.7186 26.9004C78.9719 26.687 79.1719 26.4404 79.3186 26.1604L79.8786 27.6004C79.5986 28.0537 79.2586 28.4537 78.8586 28.8004C78.4719 29.147 78.0453 29.4204 77.5786 29.6204C77.1253 29.8204 76.6453 29.9204 76.1386 29.9204Z" fill="black"/>
<path d="M56 29.7202V15.7202H59.06L64.14 23.9802L61.98 23.9602L67.12 15.7202H70.08V29.7202H66.76V25.4802C66.76 24.2535 66.7867 23.1535 66.84 22.1802C66.9067 21.1935 67.0133 20.2269 67.16 19.2802L67.54 20.3202L63.68 26.3002H62.32L58.54 20.3602L58.92 19.2802C59.08 20.1735 59.1867 21.1002 59.24 22.0602C59.3067 23.0069 59.34 24.1469 59.34 25.4802V29.7202H56Z" fill="black"/>
</svg>
