<svg width="619" height="106" viewBox="0 0 619 106" fill="none" xmlns="http://www.w3.org/2000/svg">
<rect x="7" y="24" width="608" height="78" stroke="#8738E5" stroke-width="2"/>
<rect x="4" y="99" width="6" height="6" fill="white" stroke="#8738E5" stroke-width="2"/>
<rect x="4" y="21" width="6" height="6" fill="white" stroke="#8738E5" stroke-width="2"/>
<rect x="612" y="21" width="6" height="6" fill="white" stroke="#8738E5" stroke-width="2"/>
<rect x="612" y="99" width="6" height="6" fill="white" stroke="#8738E5" stroke-width="2"/>
<rect x="0.722656" y="7.77832" width="5" height="5" transform="rotate(-45 0.722656 7.77832)" fill="#8738E5"/>
<rect x="4.96533" y="12.021" width="5" height="5" transform="rotate(-45 4.96533 12.021)" fill="#8738E5"/>
<rect x="4.96533" y="3.53564" width="5" height="5" transform="rotate(-45 4.96533 3.53564)" fill="#8738E5"/>
<rect x="9.20801" y="7.77832" width="5" height="5" transform="rotate(-45 9.20801 7.77832)" fill="#8738E5"/>
<path d="M20.6286 12V3.27273H23.5775C24.2621 3.27273 24.8218 3.39631 25.2564 3.64347C25.6939 3.88778 26.0178 4.21875 26.228 4.63636C26.4383 5.05398 26.5434 5.51989 26.5434 6.03409C26.5434 6.5483 26.4383 7.01562 26.228 7.43608C26.0206 7.85653 25.6996 8.19176 25.265 8.44176C24.8303 8.68892 24.2735 8.8125 23.5945 8.8125H21.4809V7.875H23.5604C24.0292 7.875 24.4056 7.79403 24.6897 7.6321C24.9738 7.47017 25.1797 7.25142 25.3076 6.97585C25.4383 6.69744 25.5036 6.38352 25.5036 6.03409C25.5036 5.68466 25.4383 5.37216 25.3076 5.09659C25.1797 4.82102 24.9723 4.60511 24.6854 4.44886C24.3985 4.28977 24.0178 4.21023 23.5434 4.21023H21.6854V12H20.6286ZM28.1094 12V5.45455H29.081V6.44318H29.1492C29.2685 6.11932 29.4844 5.85653 29.7969 5.65483C30.1094 5.45312 30.4617 5.35227 30.8537 5.35227C30.9276 5.35227 31.0199 5.35369 31.1307 5.35653C31.2415 5.35937 31.3253 5.36364 31.3821 5.36932V6.39205C31.3481 6.38352 31.2699 6.37074 31.1478 6.35369C31.0285 6.33381 30.902 6.32386 30.7685 6.32386C30.4503 6.32386 30.1662 6.39062 29.9162 6.52415C29.6691 6.65483 29.4731 6.83665 29.3282 7.0696C29.1861 7.29972 29.1151 7.5625 29.1151 7.85795V12H28.1094ZM35.0341 12.1364C34.4432 12.1364 33.9248 11.9957 33.4787 11.7145C33.0356 11.4332 32.689 11.0398 32.439 10.5341C32.1918 10.0284 32.0682 9.4375 32.0682 8.76136C32.0682 8.07955 32.1918 7.48437 32.439 6.97585C32.689 6.46733 33.0356 6.07244 33.4787 5.79119C33.9248 5.50994 34.4432 5.36932 35.0341 5.36932C35.625 5.36932 36.1421 5.50994 36.5853 5.79119C37.0313 6.07244 37.3779 6.46733 37.625 6.97585C37.875 7.48437 38 8.07955 38 8.76136C38 9.4375 37.875 10.0284 37.625 10.5341C37.3779 11.0398 37.0313 11.4332 36.5853 11.7145C36.1421 11.9957 35.625 12.1364 35.0341 12.1364ZM35.0341 11.233C35.483 11.233 35.8523 11.1179 36.1421 10.8878C36.4319 10.6577 36.6464 10.3551 36.7856 9.98011C36.9248 9.60511 36.9944 9.19886 36.9944 8.76136C36.9944 8.32386 36.9248 7.91619 36.7856 7.53835C36.6464 7.16051 36.4319 6.85511 36.1421 6.62216C35.8523 6.3892 35.483 6.27273 35.0341 6.27273C34.5853 6.27273 34.216 6.3892 33.9262 6.62216C33.6364 6.85511 33.4219 7.16051 33.2827 7.53835C33.1435 7.91619 33.0739 8.32386 33.0739 8.76136C33.0739 9.19886 33.1435 9.60511 33.2827 9.98011C33.4219 10.3551 33.6364 10.6577 33.9262 10.8878C34.216 11.1179 34.5853 11.233 35.0341 11.233ZM42.0068 12.1364C41.4613 12.1364 40.9798 11.9986 40.5622 11.723C40.1446 11.4446 39.8179 11.0526 39.5821 10.5469C39.3463 10.0384 39.2284 9.4375 39.2284 8.74432C39.2284 8.05682 39.3463 7.46023 39.5821 6.95455C39.8179 6.44886 40.146 6.05824 40.5665 5.78267C40.9869 5.5071 41.4727 5.36932 42.0238 5.36932C42.45 5.36932 42.7866 5.44034 43.0338 5.58239C43.2838 5.72159 43.4741 5.88068 43.6048 6.05966C43.7383 6.2358 43.842 6.38068 43.9159 6.49432H44.0011V3.27273H45.0068V12H44.0352V10.9943H43.9159C43.842 11.1136 43.7369 11.2642 43.6005 11.446C43.4642 11.625 43.2696 11.7855 43.0167 11.9276C42.7639 12.0668 42.4272 12.1364 42.0068 12.1364ZM42.1432 11.233C42.5466 11.233 42.8875 11.1278 43.1659 10.9176C43.4443 10.7045 43.6559 10.4105 43.8008 10.0355C43.9457 9.65767 44.0182 9.22159 44.0182 8.72727C44.0182 8.23864 43.9471 7.81108 43.8051 7.4446C43.663 7.07528 43.4528 6.78835 43.1744 6.58381C42.896 6.37642 42.5522 6.27273 42.1432 6.27273C41.717 6.27273 41.3619 6.3821 41.0778 6.60085C40.7966 6.81676 40.5849 7.1108 40.4429 7.48295C40.3037 7.85227 40.2341 8.26705 40.2341 8.72727C40.2341 9.19318 40.3051 9.61648 40.4471 9.99716C40.592 10.375 40.8051 10.6761 41.0863 10.9006C41.3704 11.1222 41.7227 11.233 42.1432 11.233ZM51.1133 9.32386V5.45455H52.119V12H51.1133V10.892H51.0451C50.8917 11.2244 50.6531 11.5071 50.3292 11.7401C50.0054 11.9702 49.5963 12.0852 49.102 12.0852C48.6929 12.0852 48.3292 11.9957 48.0111 11.8168C47.6929 11.6349 47.4429 11.3622 47.2611 10.9986C47.0792 10.6321 46.9883 10.1705 46.9883 9.61364V5.45455H47.994V9.54545C47.994 10.0227 48.1275 10.4034 48.3946 10.6875C48.6645 10.9716 49.0082 11.1136 49.4258 11.1136C49.6758 11.1136 49.9301 11.0497 50.1886 10.9219C50.45 10.794 50.6687 10.598 50.8449 10.3338C51.0238 10.0696 51.1133 9.73295 51.1133 9.32386ZM56.6201 12.1364C56.0064 12.1364 55.478 11.9915 55.0348 11.7017C54.5917 11.4119 54.2508 11.0128 54.0121 10.5043C53.7735 9.99574 53.6542 9.41477 53.6542 8.76136C53.6542 8.09659 53.7763 7.50994 54.0206 7.00142C54.2678 6.49006 54.6116 6.09091 55.0519 5.80398C55.4951 5.5142 56.0121 5.36932 56.603 5.36932C57.0633 5.36932 57.478 5.45455 57.8473 5.625C58.2167 5.79545 58.5192 6.03409 58.755 6.34091C58.9908 6.64773 59.1371 7.00568 59.1939 7.41477H58.1883C58.1116 7.11648 57.9411 6.85227 57.6769 6.62216C57.4155 6.3892 57.0633 6.27273 56.6201 6.27273C56.228 6.27273 55.8843 6.375 55.5888 6.57955C55.2962 6.78125 55.0675 7.06676 54.9027 7.43608C54.7408 7.80256 54.6598 8.23295 54.6598 8.72727C54.6598 9.23295 54.7394 9.6733 54.8985 10.0483C55.0604 10.4233 55.2877 10.7145 55.5803 10.9219C55.8758 11.1293 56.2223 11.233 56.6201 11.233C56.8814 11.233 57.1187 11.1875 57.3317 11.0966C57.5448 11.0057 57.7252 10.875 57.8729 10.7045C58.0206 10.5341 58.1258 10.3295 58.1883 10.0909H59.1939C59.1371 10.4773 58.9965 10.8253 58.7721 11.1349C58.5505 11.4418 58.2564 11.6861 57.89 11.8679C57.5263 12.0469 57.103 12.1364 56.6201 12.1364ZM63.5107 5.45455V6.30682H60.1187V5.45455H63.5107ZM61.1073 3.88636H62.113V10.125C62.113 10.4091 62.1542 10.6222 62.2366 10.7642C62.3218 10.9034 62.4297 10.9972 62.5604 11.0455C62.6939 11.0909 62.8346 11.1136 62.9823 11.1136C63.0931 11.1136 63.184 11.108 63.255 11.0966C63.326 11.0824 63.3829 11.071 63.4255 11.0625L63.63 11.9659C63.5618 11.9915 63.4667 12.017 63.3445 12.0426C63.2223 12.071 63.0675 12.0852 62.88 12.0852C62.5959 12.0852 62.3175 12.0241 62.0448 11.902C61.7749 11.7798 61.5505 11.5938 61.3715 11.3438C61.1954 11.0938 61.1073 10.7784 61.1073 10.3977V3.88636ZM71.228 12H68.5348V3.27273H71.3473C72.1939 3.27273 72.9184 3.44744 73.5206 3.79688C74.1229 4.14347 74.5846 4.64205 74.9056 5.29261C75.2266 5.94034 75.3871 6.71591 75.3871 7.61932C75.3871 8.52841 75.2252 9.31108 74.9013 9.96733C74.5775 10.6207 74.1059 11.1236 73.4866 11.4759C72.8672 11.8253 72.1144 12 71.228 12ZM69.5917 11.0625H71.1598C71.8814 11.0625 72.4794 10.9233 72.9539 10.6449C73.4283 10.3665 73.782 9.97017 74.015 9.45597C74.2479 8.94176 74.3644 8.32955 74.3644 7.61932C74.3644 6.91477 74.2493 6.30824 74.0192 5.79972C73.7891 5.28835 73.4454 4.89631 72.988 4.62358C72.5306 4.34801 71.961 4.21023 71.2792 4.21023H69.5917V11.0625ZM79.7678 12.1364C79.1371 12.1364 78.5931 11.9972 78.1357 11.7188C77.6812 11.4375 77.3303 11.0455 77.0831 10.5426C76.8388 10.0369 76.7167 9.44886 76.7167 8.77841C76.7167 8.10795 76.8388 7.51705 77.0831 7.00568C77.3303 6.49148 77.6741 6.09091 78.1144 5.80398C78.5576 5.5142 79.0746 5.36932 79.6655 5.36932C80.0064 5.36932 80.3431 5.42614 80.6755 5.53977C81.0079 5.65341 81.3104 5.83807 81.5831 6.09375C81.8559 6.34659 82.0732 6.68182 82.2351 7.09943C82.3971 7.51705 82.478 8.03125 82.478 8.64205V9.06818H77.4326V8.19886H81.4553C81.4553 7.82955 81.3814 7.5 81.2337 7.21023C81.0888 6.92045 80.8814 6.69176 80.6116 6.52415C80.3445 6.35653 80.0292 6.27273 79.6655 6.27273C79.265 6.27273 78.9184 6.37216 78.6258 6.57102C78.336 6.76705 78.113 7.02273 77.9567 7.33807C77.8005 7.65341 77.7223 7.99148 77.7223 8.35227V8.93182C77.7223 9.42614 77.8076 9.84517 77.978 10.1889C78.1513 10.5298 78.3914 10.7898 78.6982 10.9688C79.005 11.1449 79.3616 11.233 79.7678 11.233C80.032 11.233 80.2706 11.196 80.4837 11.1222C80.6996 11.0455 80.8857 10.9318 81.0419 10.7812C81.1982 10.6278 81.3189 10.4375 81.4042 10.2102L82.3758 10.483C82.2735 10.8125 82.1016 11.1023 81.8601 11.3523C81.6187 11.5994 81.3204 11.7926 80.9652 11.9318C80.6101 12.0682 80.211 12.1364 79.7678 12.1364ZM88.6442 6.92045L87.7408 7.17614C87.684 7.02557 87.6002 6.87926 87.4894 6.73722C87.3814 6.59233 87.2337 6.47301 87.0462 6.37926C86.8587 6.28551 86.6187 6.23864 86.326 6.23864C85.9255 6.23864 85.5917 6.33097 85.3246 6.51562C85.0604 6.69744 84.9283 6.92898 84.9283 7.21023C84.9283 7.46023 85.0192 7.65767 85.201 7.80256C85.3829 7.94744 85.6669 8.06818 86.0533 8.16477L87.0249 8.40341C87.6101 8.54545 88.0462 8.76278 88.3331 9.0554C88.6201 9.34517 88.7635 9.71875 88.7635 10.1761C88.7635 10.5511 88.6556 10.8864 88.4397 11.1818C88.2266 11.4773 87.9283 11.7102 87.5448 11.8807C87.1613 12.0511 86.7152 12.1364 86.2067 12.1364C85.5391 12.1364 84.9866 11.9915 84.5491 11.7017C84.1116 11.4119 83.8346 10.9886 83.7181 10.4318L84.6726 10.1932C84.7635 10.5455 84.9354 10.8097 85.1883 10.9858C85.4439 11.1619 85.7777 11.25 86.1897 11.25C86.6584 11.25 87.0306 11.1506 87.3062 10.9517C87.5846 10.75 87.7238 10.5085 87.7238 10.2273C87.7238 10 87.6442 9.80966 87.4851 9.65625C87.326 9.5 87.0817 9.38352 86.7522 9.30682L85.6613 9.05114C85.0618 8.90909 84.6215 8.68892 84.3402 8.39062C84.0618 8.08949 83.9226 7.71307 83.9226 7.26136C83.9226 6.89205 84.0263 6.56534 84.2337 6.28125C84.4439 5.99716 84.7294 5.77415 85.0902 5.61222C85.4539 5.45028 85.8658 5.36932 86.326 5.36932C86.9738 5.36932 87.4823 5.51136 87.8516 5.79545C88.2238 6.07955 88.488 6.45455 88.6442 6.92045ZM90.2774 12V5.45455H91.2831V12H90.2774ZM90.7888 4.36364C90.5927 4.36364 90.4237 4.29688 90.2816 4.16335C90.1424 4.02983 90.0728 3.86932 90.0728 3.68182C90.0728 3.49432 90.1424 3.33381 90.2816 3.20028C90.4237 3.06676 90.5927 3 90.7888 3C90.9848 3 91.1524 3.06676 91.2916 3.20028C91.4336 3.33381 91.5047 3.49432 91.5047 3.68182C91.5047 3.86932 91.4336 4.02983 91.2916 4.16335C91.1524 4.29688 90.9848 4.36364 90.7888 4.36364ZM95.7671 14.5909C95.2813 14.5909 94.8637 14.5284 94.5142 14.4034C94.1648 14.2812 93.8736 14.1193 93.6407 13.9176C93.4106 13.7188 93.2273 13.5057 93.091 13.2784L93.8921 12.7159C93.983 12.8352 94.0981 12.9716 94.2373 13.125C94.3765 13.2812 94.5668 13.4162 94.8083 13.5298C95.0526 13.6463 95.3722 13.7045 95.7671 13.7045C96.2955 13.7045 96.7316 13.5767 97.0753 13.321C97.4191 13.0653 97.591 12.6648 97.591 12.1193V10.7898H97.5057C97.4319 10.9091 97.3267 11.0568 97.1904 11.233C97.0569 11.4062 96.8637 11.5611 96.6108 11.6974C96.3608 11.831 96.0228 11.8977 95.5966 11.8977C95.0682 11.8977 94.5938 11.7727 94.1733 11.5227C93.7557 11.2727 93.4248 10.9091 93.1804 10.4318C92.939 9.95455 92.8182 9.375 92.8182 8.69318C92.8182 8.02273 92.9361 7.43892 93.1719 6.94176C93.4077 6.44176 93.7358 6.0554 94.1563 5.78267C94.5767 5.5071 95.0625 5.36932 95.6137 5.36932C96.0398 5.36932 96.3779 5.44034 96.6279 5.58239C96.8807 5.72159 97.0739 5.88068 97.2074 6.05966C97.3438 6.2358 97.4489 6.38068 97.5228 6.49432H97.625V5.45455H98.5966V12.1875C98.5966 12.75 98.4688 13.2074 98.2131 13.5597C97.9603 13.9148 97.6194 14.1747 97.1904 14.3395C96.7642 14.5071 96.2898 14.5909 95.7671 14.5909ZM95.733 10.9943C96.1364 10.9943 96.4773 10.902 96.7557 10.7173C97.0341 10.5327 97.2458 10.267 97.3907 9.92045C97.5356 9.57386 97.608 9.15909 97.608 8.67614C97.608 8.20455 97.537 7.78835 97.3949 7.42756C97.2529 7.06676 97.0427 6.78409 96.7642 6.57955C96.4858 6.375 96.1421 6.27273 95.733 6.27273C95.3069 6.27273 94.9517 6.38068 94.6677 6.59659C94.3864 6.8125 94.1748 7.10227 94.0327 7.46591C93.8935 7.82955 93.8239 8.23295 93.8239 8.67614C93.8239 9.13068 93.8949 9.53267 94.037 9.8821C94.1819 10.2287 94.3949 10.5014 94.6762 10.7003C94.9603 10.8963 95.3125 10.9943 95.733 10.9943ZM101.443 8.0625V12H100.438V5.45455H101.409V6.47727H101.494C101.648 6.14489 101.881 5.87784 102.193 5.67614C102.506 5.47159 102.909 5.36932 103.403 5.36932C103.847 5.36932 104.234 5.46023 104.567 5.64205C104.899 5.82102 105.158 6.09375 105.342 6.46023C105.527 6.82386 105.619 7.28409 105.619 7.84091V12H104.614V7.90909C104.614 7.39489 104.48 6.99432 104.213 6.70739C103.946 6.41761 103.58 6.27273 103.114 6.27273C102.793 6.27273 102.506 6.34233 102.253 6.48153C102.003 6.62074 101.805 6.82386 101.661 7.09091C101.516 7.35795 101.443 7.68182 101.443 8.0625ZM110.201 12.1364C109.571 12.1364 109.027 11.9972 108.569 11.7188C108.115 11.4375 107.764 11.0455 107.517 10.5426C107.272 10.0369 107.15 9.44886 107.15 8.77841C107.15 8.10795 107.272 7.51705 107.517 7.00568C107.764 6.49148 108.108 6.09091 108.548 5.80398C108.991 5.5142 109.508 5.36932 110.099 5.36932C110.44 5.36932 110.777 5.42614 111.109 5.53977C111.441 5.65341 111.744 5.83807 112.017 6.09375C112.289 6.34659 112.507 6.68182 112.669 7.09943C112.831 7.51705 112.912 8.03125 112.912 8.64205V9.06818H107.866V8.19886H111.889C111.889 7.82955 111.815 7.5 111.667 7.21023C111.522 6.92045 111.315 6.69176 111.045 6.52415C110.778 6.35653 110.463 6.27273 110.099 6.27273C109.699 6.27273 109.352 6.37216 109.059 6.57102C108.77 6.76705 108.547 7.02273 108.39 7.33807C108.234 7.65341 108.156 7.99148 108.156 8.35227V8.93182C108.156 9.42614 108.241 9.84517 108.412 10.1889C108.585 10.5298 108.825 10.7898 109.132 10.9688C109.439 11.1449 109.795 11.233 110.201 11.233C110.466 11.233 110.704 11.196 110.917 11.1222C111.133 11.0455 111.319 10.9318 111.476 10.7812C111.632 10.6278 111.753 10.4375 111.838 10.2102L112.809 10.483C112.707 10.8125 112.535 11.1023 112.294 11.3523C112.052 11.5994 111.754 11.7926 111.399 11.9318C111.044 12.0682 110.645 12.1364 110.201 12.1364ZM114.441 12V5.45455H115.413V6.44318H115.481C115.601 6.11932 115.816 5.85653 116.129 5.65483C116.441 5.45312 116.794 5.35227 117.186 5.35227C117.26 5.35227 117.352 5.35369 117.463 5.35653C117.574 5.35937 117.657 5.36364 117.714 5.36932V6.39205C117.68 6.38352 117.602 6.37074 117.48 6.35369C117.36 6.33381 117.234 6.32386 117.101 6.32386C116.782 6.32386 116.498 6.39062 116.248 6.52415C116.001 6.65483 115.805 6.83665 115.66 7.0696C115.518 7.29972 115.447 7.5625 115.447 7.85795V12H114.441Z" fill="#8738E5"/>
</svg>
